<svg width="127" height="67" viewBox="0 0 127 67" fill="none" xmlns="http://www.w3.org/2000/svg">
<mask id="mask0" mask-type="alpha" maskUnits="userSpaceOnUse" x="0" y="0" width="69" height="67">
<path fill-rule="evenodd" clip-rule="evenodd" d="M0.0100098 0.11026H68.2956V66.6492H0.0100098V0.11026Z" fill="white"/>
</mask>
<g mask="url(#mask0)">
<path fill-rule="evenodd" clip-rule="evenodd" d="M31.218 30.4387C32.6381 27.6289 33.8371 24.6873 34.5843 21.732C34.954 20.2687 35.2105 18.7642 35.1476 17.4534C35.1161 16.8096 34.9802 16.2295 34.7979 15.8889C34.5943 15.5635 34.4909 15.4915 34.1566 15.3986C33.9824 15.3694 33.7495 15.3447 33.5021 15.3667C33.2578 15.3761 33.0131 15.4322 32.7634 15.5056C32.2659 15.6698 31.7514 15.9657 31.2569 16.3676C30.7612 16.7684 30.2906 17.2703 29.8507 17.8232C29.4044 18.3723 28.9903 18.9772 28.6058 19.6124C27.0875 22.1822 25.98 25.1431 25.182 28.1697C24.3837 31.2035 23.9008 34.3521 23.8438 37.4944C23.8245 38.8122 23.8839 40.1297 24.0586 41.4226C24.846 40.4935 25.596 39.5283 26.3092 38.5374C28.171 35.9867 29.8042 33.2588 31.218 30.4387" fill="#1D6B76"/>
<path fill-rule="evenodd" clip-rule="evenodd" d="M58.3404 40.561C58.3489 42.9816 58.3808 45.801 58.4361 48.0808L62.4978 48.5504V49.8655H51.4458V48.5504L55.775 48.0668C55.8135 46.4715 55.8406 44.6146 55.8564 42.8139C55.5765 43.0634 55.2954 43.309 55.0088 43.5533C54.3733 44.0804 53.7235 44.5882 53.0607 45.0801C51.7357 46.0638 50.3281 46.9421 48.837 47.6781C47.3467 48.4084 45.7561 48.995 44.067 49.2401L42.7882 49.34C42.3655 49.3508 41.9479 49.3341 41.5265 49.3318C41.1045 49.292 40.6809 49.2708 40.2575 49.206C39.8341 49.1277 39.4086 49.0705 38.9869 48.9399C38.6569 48.8659 38.3352 48.7425 38.0136 48.6137C36.6503 49.434 35.174 50.0656 33.6294 50.4244C32.7923 50.6071 31.9445 50.749 31.0907 50.7867C30.2608 50.8385 29.3242 50.8378 28.4345 50.6066C27.5401 50.39 26.6866 49.962 25.968 49.3887C25.2441 48.8186 24.6518 48.1181 24.1643 47.3759C23.8321 46.8709 23.5494 46.3461 23.3009 45.8094C22.6843 46.3302 22.048 46.8302 21.3859 47.3016C20.015 48.2888 18.5345 49.1567 16.9332 49.7808C15.3462 50.4246 13.6007 50.7685 11.8675 50.6895C11.513 50.6733 11.2385 50.3713 11.2546 50.015C11.2694 49.6841 11.5296 49.4228 11.8504 49.3999L11.8675 49.3988C13.3774 49.2897 14.8372 48.8098 16.1963 48.1126C16.8764 47.7639 17.5367 47.3699 18.1687 46.9252C18.8062 46.4911 19.4232 46.0207 20.0151 45.5154C20.8416 44.8098 21.6311 44.0566 22.3897 43.269C22.3267 43.037 22.2666 42.8048 22.2114 42.5721C21.8216 40.9101 21.598 39.2275 21.5049 37.5442C21.3212 34.1764 21.5889 30.8118 22.2024 27.4962C22.5058 25.8363 22.931 24.1953 23.4599 22.5729C23.9841 20.9479 24.6531 19.3547 25.5041 17.8097C26.3613 16.2708 27.3946 14.7537 28.911 13.4884C29.6671 12.8611 30.5593 12.2995 31.5992 11.9452C32.1215 11.7769 32.6723 11.6523 33.2369 11.6157L33.6605 11.5931C33.8035 11.5916 33.9511 11.6043 34.096 11.6117C34.3801 11.618 34.6941 11.6815 34.997 11.7408C35.6152 11.8966 36.2618 12.1636 36.8122 12.6046C37.3558 13.0407 37.7832 13.5878 38.0726 14.141C38.6329 15.2533 38.7752 16.3169 38.8239 17.2914C38.8818 19.2416 38.5251 20.9733 38.0902 22.6539C37.1673 25.9929 35.7718 29.0631 34.1838 32.0107C32.574 34.9466 30.7072 37.7241 28.6132 40.328C27.4109 41.7822 26.1364 43.1892 24.7599 44.4961C24.9934 45.1788 25.2792 45.834 25.6344 46.4393C26.3876 47.6991 27.4815 48.6974 28.841 49.0615C29.52 49.2541 30.223 49.2979 31.0063 49.2412C31.7713 49.2092 32.5255 49.0817 33.2709 48.9219C34.3585 48.6372 35.4041 48.2028 36.3711 47.6345C35.7061 47.0834 35.1582 46.3461 34.8367 45.5214C34.4795 44.6224 34.3711 43.6591 34.4195 42.7385C34.4715 41.8148 34.673 40.9231 34.9667 40.0742C35.5585 38.3756 36.5175 36.8338 37.8611 35.5578C38.5374 34.9242 39.3336 34.3643 40.319 34.0036C40.5539 33.9019 40.8375 33.8583 41.097 33.7915C41.3761 33.7531 41.6512 33.716 41.9542 33.7258C42.5595 33.7387 43.2595 33.9485 43.8233 34.385C44.3827 34.8397 44.694 35.4275 44.8942 35.9786C45.0518 36.5221 45.1425 37.0578 45.1304 37.5514C45.1309 38.5496 44.9391 39.4567 44.6756 40.3201C44.4066 41.1827 44.0374 41.9905 43.6097 42.7554C43.1835 43.5209 42.7048 44.2512 42.1604 44.9271C41.3646 45.9556 40.4251 46.8581 39.4038 47.6493C40.0966 47.9012 40.8558 48.0035 41.6125 48.0975C42.0001 48.1154 42.3921 48.1515 42.7781 48.1556L43.9231 48.096C45.4542 47.923 46.9558 47.4043 48.3742 46.7189C51.169 45.3292 53.7408 43.3395 55.8682 41.0588C55.871 40.4442 55.8727 39.8486 55.8727 39.2901V15.1625L51.4756 14.9575V13.6424L57.7777 12.3605L58.4792 12.7634L58.3381 19.9144V38.5197L68.2956 28.2842C68.2825 28.201 68.2705 28.1178 68.2567 28.0348L64.1997 27.4907V26.1143H67.8842C65.4896 15.5669 58.0754 6.37344 47.2671 2.21146C30.0442 -4.42056 13.1274 5.35967 4.132 21.5401C-5.48642 38.8416 1.99528 58.2459 23.3668 64.8854C40.9883 70.3597 59.9021 62.8637 66.502 45.5568C66.7217 44.9802 66.9222 44.4009 67.1087 43.8203L62.4745 36.3734L58.3404 40.561" fill="#1D6B76"/>
</g>
<path fill-rule="evenodd" clip-rule="evenodd" d="M67.9861 40.5227C68.7188 37.077 68.8854 33.6074 68.5471 30.2223L64.2539 34.5712L67.9861 40.5227" fill="#1D6B76"/>
<path fill-rule="evenodd" clip-rule="evenodd" d="M41.6272 41.7286C41.9514 41.0526 42.2014 40.3477 42.3826 39.6469C42.5686 38.9507 42.6763 38.2394 42.648 37.6089C42.6424 37.2873 42.5834 37.016 42.5209 36.778C42.4343 36.5714 42.3428 36.4282 42.2644 36.3656C42.1744 36.3201 42.0792 36.2639 41.8721 36.2595C41.7728 36.2553 41.6412 36.2702 41.521 36.2792C41.391 36.3206 41.2643 36.317 41.1269 36.3799C40.5808 36.5582 40.0121 36.9322 39.4847 37.3794C38.9546 37.8297 38.4725 38.3747 38.0443 38.9619C37.6091 39.5454 37.2331 40.183 36.9432 40.851C36.3654 42.1773 36.0829 43.6611 36.4599 44.9383C36.6563 45.6388 37.0896 46.2479 37.6734 46.7318C38.7641 45.8657 39.7284 44.8402 40.5047 43.6905C40.939 43.0698 41.3089 42.4068 41.6272 41.7286" fill="#1D6B76"/>
<path fill-rule="evenodd" clip-rule="evenodd" d="M83.1901 18.307C84.4503 18.307 85.4882 17.4153 85.4882 16.0591C85.4882 14.6825 84.4503 13.8112 83.1901 13.8112C81.9295 13.8112 80.8916 14.6825 80.8916 16.0591C80.8916 17.4153 81.9295 18.307 83.1901 18.307" fill="#1D6B76"/>
<path fill-rule="evenodd" clip-rule="evenodd" d="M121.479 18.307C122.739 18.307 123.777 17.4153 123.777 16.0591C123.777 14.6825 122.739 13.8112 121.479 13.8112C120.218 13.8112 119.18 14.6825 119.18 16.0591C119.18 17.4153 120.218 18.307 121.479 18.307" fill="#1D6B76"/>
<path fill-rule="evenodd" clip-rule="evenodd" d="M123.013 48.0795C122.95 45.494 122.919 41.7526 122.919 39.2901V32.2248L123.04 25.993L122.437 25.609L115.908 27.1984V28.5135L120.374 28.6982C120.474 31.3689 120.495 33.8847 120.495 36.8632V39.2901C120.495 41.7495 120.463 45.4848 120.401 48.07L115.514 48.5296L111.038 48.1182L102.542 34.5711L109.092 27.9362L113.759 27.4907V26.1143H102.488V27.4907L106.794 28.0682L96.6265 38.5199V19.9144L96.7678 12.7634L96.0661 12.3605L89.7643 13.6424V14.9575L94.1613 15.1624V39.2901C94.1613 41.9371 94.1286 45.3761 94.0636 48.0668L89.1697 48.5233L84.7241 48.0795C84.6617 45.494 84.6307 41.7526 84.6307 39.2901V32.2248L84.7508 25.993L84.1481 25.609L77.6194 27.1984V28.5135L82.0853 28.6982C82.1854 31.3689 82.2059 33.8847 82.2059 36.8632V39.2901C82.2059 41.7495 82.1746 45.4848 82.1124 48.07L77.2251 48.5296L72.7492 48.1182L67.986 40.5227C67.7515 41.6259 67.4596 42.7262 67.1086 43.8203L70.8701 49.8655H100.786V48.5504L96.7246 48.0808C96.6692 45.8012 96.6371 42.9817 96.6287 40.5613L100.763 36.3733L109.159 49.8655H126.875V48.5504L123.013 48.0795" fill="#1D6B76"/>
<path fill-rule="evenodd" clip-rule="evenodd" d="M68.506 28.0682L68.2957 28.2841C68.3978 28.9266 68.4822 29.5727 68.5472 30.2223L70.8041 27.9362L75.47 27.4907V26.1143H67.8843C68.0286 26.7495 68.1492 27.3905 68.2568 28.0348L68.506 28.0682" fill="#1D6B76"/>
</svg>
